<svg width="47" height="36" viewBox="0 0 47 36" fill="none" xmlns="http://www.w3.org/2000/svg">
<path d="M1.89844 5.80843L13.0182 35.2177H14.3404L2.62447 4.23792H2.60154L1.89844 5.80843Z" fill="white"/>
<path d="M0.1875 9.63448L9.86287 35.2171H11.185L0.913535 8.06396H0.890607L0.1875 9.63448Z" fill="white"/>
<path d="M45.6138 8.0658H45.5908L35.3193 35.2189H36.6415L46.3169 9.63631L45.6138 8.0658Z" fill="white"/>
<path d="M3.61035 1.99007L16.1822 35.218H17.4967L4.33639 0.419556H4.31346L3.61035 1.99007Z" fill="white"/>
<path d="M43.9029 4.23792H43.88L32.9741 33.0572L32.7067 33.7747L32.4392 33.0572L21.6862 4.64449H21.6633L21.0137 6.35851L31.9348 35.2177H33.4862L44.606 5.80843L43.9029 4.23792Z" fill="white"/>
<path d="M20.112 8.81274H20.0891L19.4395 10.5268L28.7786 35.2165H30.1007L20.112 8.81274Z" fill="white"/>
<path d="M21.6813 21.33H21.6583L17.8677 31.3509L18.5173 33.0649H18.5402L22.3309 23.044L21.6813 21.33Z" fill="white"/>
<path d="M20.1095 17.1599H20.0866L16.2959 27.1729L16.9379 28.8869H16.9608L20.7515 18.8739L20.1095 17.1599Z" fill="white"/>
<path d="M18.527 12.9823H18.504L14.7134 23.0033L15.363 24.7173H15.3859L19.1766 14.7043L18.527 12.9823Z" fill="white"/>
<path d="M42.1681 0.419556L32.9742 24.7187L32.7067 25.4282L32.4392 24.7187L23.2682 0.475361H23.2453L22.5957 2.18937L32.699 28.8881H32.722L42.9017 1.99007L42.1986 0.419556H42.1681Z" fill="white"/>
</svg>
